<svg xmlns="http://www.w3.org/2000/svg" xml:space="preserve" width="260px" height="260px" version="1.1" shape-rendering="geometricPrecision" text-rendering="geometricPrecision" image-rendering="optimizeQuality" fill-rule="evenodd" clip-rule="evenodd"
viewBox="0 0 33.64 33.58">
   <path fill="#E53424" d="M12.31 24.42c0.39,0 0.71,0.13 0.98,0.4 0.26,0.26 0.39,0.57 0.39,0.95 0,0.37 -0.13,0.69 -0.39,0.95 -0.27,0.26 -0.59,0.39 -0.98,0.39l-0.59 0 0 1.23 -0.89 0 0 -3.92 1.48 0zm0 1.85c0.14,0 0.25,-0.05 0.34,-0.14 0.09,-0.1 0.14,-0.22 0.14,-0.36 0,-0.14 -0.05,-0.26 -0.14,-0.36 -0.09,-0.1 -0.2,-0.15 -0.34,-0.15l-0.59 0 0 1.01 0.59 0zm3.88 2.07l-0.74 -1.29 -0.42 0 0 1.29 -0.9 0 0 -3.92 1.57 0c0.37,0 0.69,0.13 0.95,0.4 0.26,0.26 0.39,0.57 0.39,0.95 0,0.24 -0.06,0.46 -0.2,0.66 -0.13,0.2 -0.3,0.36 -0.52,0.47l0.83 1.44 -0.96 0zm-1.16 -3.08l0 1.01 0.67 0c0.12,0 0.23,-0.05 0.31,-0.14 0.09,-0.1 0.14,-0.22 0.14,-0.36 0,-0.14 -0.05,-0.26 -0.14,-0.36 -0.08,-0.1 -0.19,-0.15 -0.31,-0.15l-0.67 0zm5.8 2.57c-0.39,0.39 -0.88,0.59 -1.44,0.59 -0.57,0 -1.05,-0.2 -1.45,-0.59 -0.39,-0.39 -0.59,-0.87 -0.59,-1.45 0,-0.57 0.2,-1.06 0.59,-1.45 0.4,-0.39 0.88,-0.58 1.45,-0.58 0.56,0 1.05,0.19 1.44,0.58 0.4,0.39 0.59,0.88 0.59,1.45 0,0.58 -0.19,1.06 -0.59,1.45zm-2.26 -0.61c0.22,0.22 0.49,0.33
    0.82,0.33 0.32,0 0.59,-0.11 0.81,-0.33 0.22,-0.21 0.33,-0.49 0.33,-0.84 0,-0.34 -0.11,-0.62 -0.33,-0.84 -0.22,-0.21 -0.49,-0.32 -0.81,-0.32 -0.33,0 -0.6,0.11 -0.82,0.32 -0.22,0.22 -0.33,0.5 -0.33,0.84 0,0.35 0.11,0.63 0.33,0.84z"/>
   <path fill="#E53424" d="M12.75 8.16l-12.75 25.42 24.8 0 -2.33 -4.91 -14.13 -0.04 7.21 -14.4 -2.8 -6.07zm14.73 25.42l6.16 -0.06 -16.79 -33.52 -2.84 5.66 13.47 27.92z"/>
</svg>
