<svg xmlns="http://www.w3.org/2000/svg"
 width="302.000000pt" height="302.000000pt" viewBox="0 0 302.000000 302.000000"
 preserveAspectRatio="xMidYMid meet">
<g transform="translate(0.000000,302.000000) scale(0.100000,-0.100000)"
fill="#000000" stroke="none">
<path d="M1379 2757 l-127 -252 602 -1248 601 -1247 283 0 c156 0 282 3 280 8
-41 92 -1501 2992 -1506 2992 -4 0 -64 -114 -133 -253z"/>
<path d="M572 1149 l-573 -1139 1115 0 1115 0 -43 93 c-24 50 -70 149 -103
218 l-60 126 -243 6 c-134 4 -416 7 -627 7 -210 0 -383 2 -383 5 0 3 143 290
317 639 l317 634 -123 269 c-68 147 -127 271 -130 275 -3 4 -264 -506 -579
-1133z"/>
<path d="M1652 819 c-65 -32 -97 -87 -97 -163 1 -112 61 -177 170 -184 104 -7
175 44 197 140 35 156 -125 278 -270 207z m151 -94 c34 -34 40 -67 23 -110
-37 -87 -164 -73 -182 20 -6 36 15 87 43 104 34 20 89 13 116 -14z"/>
<path d="M970 650 l0 -180 45 0 45 0 0 54 0 53 53 6 c43 5 58 13 85 42 27 30
32 42 32 86 0 45 -4 55 -34 85 -34 34 -34 34 -130 34 l-96 0 0 -180z m160 86
c6 -8 10 -25 8 -38 -2 -19 -10 -24 -40 -26 l-38 -3 0 40 c0 38 2 41 29 41 16
0 34 -7 41 -14z"/>
<path d="M1260 650 l0 -180 45 0 45 0 0 60 c0 82 23 82 68 0 32 -59 33 -60 77
-60 54 0 55 7 12 79 l-32 54 27 28 c23 23 28 36 28 79 0 46 -4 56 -34 86 l-34
34 -101 0 -101 0 0 -180z m170 86 c6 -8 10 -25 8 -38 -2 -19 -10 -23 -45 -26
l-43 -3 0 40 c0 40 1 41 34 41 18 0 39 -7 46 -14z"/>
</g>
</svg>
