<?xml version="1.0" encoding="UTF-8"?>
<svg xmlns="http://www.w3.org/2000/svg" xml:space="preserve" width="502px" height="117px" version="1.1"
viewBox="0 0 151.84 35.39">
  <g id="logo">
   <path class="logo__logo" d="M144.4 2.91l-4.54 9.05 8.83 0 -0.83 -1.75 -5.03 -0.02 2.57 -5.12 -1 -2.16zm5.25 9.05l2.19 -0.03 -5.98 -11.93 -1.01 2.01 4.8 9.95z"/>
   <path class="logo__text" fill-rule="nonzero" d="M14.32 12.34c0.54,0 0.98,0.18 1.33,0.53 0.35,0.35 0.53,0.8 0.53,1.36l0 13.09c0,0.53 -0.18,0.98 -0.53,1.34 -0.35,0.36 -0.79,0.55 -1.33,0.55 -0.53,0 -0.98,-0.19 -1.33,-0.55 -0.35,-0.36 -0.52,-0.81 -0.52,-1.34l0 -1.52 0.68 0.28c0,0.27 -0.15,0.59 -0.43,0.98 -0.29,0.38 -0.69,0.75 -1.18,1.12 -0.5,0.38 -1.08,0.69 -1.75,0.95 -0.67,0.26 -1.4,0.38 -2.18,0.38 -1.42,0 -2.71,-0.36 -3.87,-1.09 -1.15,-0.74 -2.06,-1.75 -2.73,-3.04 -0.67,-1.28 -1.01,-2.76 -1.01,-4.44 0,-1.69 0.34,-3.18 1.01,-4.47 0.67,-1.28 1.57,-2.3 2.7,-3.03 1.14,-0.73 2.39,-1.1 3.78,-1.1 0.88,0 1.7,0.14 2.44,0.41 0.74,0.26 1.39,0.6 1.93,1.02 0.55,0.41 0.97,0.83 1.27,1.25 0.3,0.42 0.45,0.78 0.45,1.07l-1.11 0.4 0 -2.26c0,-0.53 0.17,-0.98 0.52,-1.34 0.35,-0.37 0.8,-0.55 1.33,-0.55zm-6.25 13.77c0.91,0 1.71,-0.23 2.39,-0.68 0.68,-0.45 1.21,-1.07 1.59,-1.86 0.38,-0.78 0.57,-1.66 0.57,-2.63 0,-0.99 -0.19,-1.87 -0.57,-2.66 -0.38,-0.78 -0.91,-1.4 -1.59,-1.85 -0.68,-0.46 -1.48,-0.68 -2.39,-0.68 -0.88,0 -1.67,0.22 -2.35,0.68 -0.68,0.45 -1.21,1.07 -1.59,1.85 -0.38,0.79 -0.57,1.67 -0.57,2.66 0,0.97 0.19,1.85 0.57,2.63 0.38,0.79 0.91,1.41 1.59,1.86 0.68,0.45 1.47,0.68 2.35,0.68zm20.98 -13.77c1.53,0 2.69,0.32 3.48,0.96 0.79,0.64 1.34,1.49 1.64,2.56 0.3,1.06 0.45,2.24 0.45,3.54l0 7.92c0,0.53 -0.18,0.98 -0.53,1.34 -0.35,0.36 -0.79,0.55 -1.33,0.55 -0.53,0 -0.98,-0.19 -1.33,-0.55 -0.35,-0.36 -0.52,-0.81 -0.52,-1.34l0 -7.92c0,-0.68 -0.09,-1.3 -0.27,-1.84 -0.17,-0.55 -0.49,-0.99 -0.94,-1.32 -0.45,-0.33 -1.1,-0.49 -1.95,-0.49 -0.82,0 -1.52,0.16 -2.09,0.49 -0.56,0.33 -1,0.77 -1.3,1.32 -0.3,0.54 -0.45,1.16 -0.45,1.84l0 7.92c0,0.53 -0.17,0.98 -0.52,1.34 -0.35,0.36 -0.8,0.55 -1.33,0.55 -0.54,0 -0.98,-0.19 -1.33,-0.55 -0.35,-0.36 -0.53,-0.81 -0.53,-1.34l0 -12.78c0,-0.54 0.18,-0.98 0.53,-1.34 0.35,-0.37 0.79,-0.55 1.33,-0.55 0.53,0 0.98,0.18 1.33,0.55 0.35,0.36 0.52,0.8 0.52,1.34l0 1.33 -0.46 -0.09c0.19,-0.35 0.45,-0.73 0.8,-1.13 0.36,-0.4 0.77,-0.78 1.24,-1.13 0.48,-0.35 1.01,-0.63 1.61,-0.85 0.6,-0.22 1.25,-0.33 1.95,-0.33zm16.3 0c0.87,0 1.66,0.14 2.39,0.41 0.72,0.26 1.34,0.6 1.87,1.02 0.52,0.41 0.94,0.83 1.24,1.25 0.29,0.42 0.44,0.78 0.44,1.07l-0.8 0.4 0 -2.26c0,-0.53 0.17,-0.98 0.53,-1.34 0.35,-0.37 0.79,-0.55 1.33,-0.55 0.53,0 0.98,0.18 1.33,0.53 0.35,0.35 0.52,0.8 0.52,1.36l0 13.77c0,1.79 -0.38,3.23 -1.16,4.31 -0.77,1.09 -1.79,1.87 -3.05,2.36 -1.25,0.48 -2.6,0.72 -4.05,0.72 -0.41,0 -0.95,-0.05 -1.61,-0.15 -0.66,-0.11 -1.29,-0.23 -1.88,-0.37 -0.6,-0.15 -1.06,-0.28 -1.37,-0.41 -0.61,-0.26 -1.04,-0.6 -1.28,-1 -0.24,-0.4 -0.28,-0.83 -0.14,-1.28 0.19,-0.6 0.49,-1.01 0.9,-1.23 0.41,-0.21 0.84,-0.24 1.3,-0.07 0.2,0.06 0.54,0.18 1.02,0.37 0.47,0.18 0.99,0.35 1.56,0.51 0.57,0.15 1.07,0.23 1.5,0.23 1.55,0 2.69,-0.31 3.44,-0.93 0.74,-0.62 1.11,-1.47 1.11,-2.57l0 -2.69 0.37 0.28c0,0.27 -0.14,0.59 -0.42,0.98 -0.28,0.38 -0.66,0.75 -1.14,1.12 -0.49,0.38 -1.06,0.69 -1.72,0.95 -0.66,0.26 -1.36,0.38 -2.1,0.38 -1.47,0 -2.79,-0.36 -3.96,-1.09 -1.18,-0.74 -2.11,-1.75 -2.79,-3.04 -0.68,-1.28 -1.02,-2.76 -1.02,-4.44 0,-1.69 0.34,-3.18 1.02,-4.47 0.68,-1.28 1.6,-2.3 2.76,-3.03 1.15,-0.73 2.44,-1.1 3.86,-1.1zm0.59 3.41c-0.93,0 -1.74,0.22 -2.44,0.68 -0.7,0.45 -1.25,1.07 -1.64,1.85 -0.39,0.79 -0.59,1.67 -0.59,2.66 0,0.97 0.2,1.85 0.59,2.63 0.39,0.79 0.94,1.41 1.64,1.86 0.7,0.45 1.51,0.68 2.44,0.68 0.95,0 1.78,-0.23 2.48,-0.68 0.7,-0.45 1.24,-1.07 1.64,-1.86 0.39,-0.78 0.58,-1.66 0.58,-2.63 0,-0.99 -0.19,-1.87 -0.58,-2.66 -0.4,-0.78 -0.94,-1.4 -1.64,-1.85 -0.7,-0.46 -1.53,-0.68 -2.48,-0.68zm25.53 -3.41c0.53,0 0.97,0.18 1.33,0.53 0.35,0.35 0.52,0.8 0.52,1.36l0 13.09c0,0.53 -0.17,0.98 -0.52,1.34 -0.36,0.36 -0.8,0.55 -1.33,0.55 -0.54,0 -0.98,-0.19 -1.34,-0.55 -0.35,-0.36 -0.52,-0.81 -0.52,-1.34l0 -1.52 0.68 0.28c0,0.27 -0.14,0.59 -0.43,0.98 -0.29,0.38 -0.68,0.75 -1.18,1.12 -0.49,0.38 -1.08,0.69 -1.75,0.95 -0.67,0.26 -1.39,0.38 -2.18,0.38 -1.42,0 -2.71,-0.36 -3.87,-1.09 -1.15,-0.74 -2.06,-1.75 -2.73,-3.04 -0.67,-1.28 -1.01,-2.76 -1.01,-4.44 0,-1.69 0.34,-3.18 1.01,-4.47 0.67,-1.28 1.57,-2.3 2.7,-3.03 1.14,-0.73 2.4,-1.1 3.78,-1.1 0.88,0 1.7,0.14 2.44,0.41 0.74,0.26 1.39,0.6 1.94,1.02 0.54,0.41 0.96,0.83 1.26,1.25 0.3,0.42 0.45,0.78 0.45,1.07l-1.11 0.4 0 -2.26c0,-0.53 0.17,-0.98 0.52,-1.34 0.36,-0.37 0.8,-0.55 1.34,-0.55zm-6.25 13.77c0.9,0 1.7,-0.23 2.38,-0.68 0.68,-0.45 1.21,-1.07 1.59,-1.86 0.38,-0.78 0.57,-1.66 0.57,-2.63 0,-0.99 -0.19,-1.87 -0.57,-2.66 -0.38,-0.78 -0.91,-1.4 -1.59,-1.85 -0.68,-0.46 -1.48,-0.68 -2.38,-0.68 -0.89,0 -1.67,0.22 -2.36,0.68 -0.68,0.45 -1.21,1.07 -1.59,1.85 -0.38,0.79 -0.57,1.67 -0.57,2.66 0,0.97 0.19,1.85 0.57,2.63 0.38,0.79 0.91,1.41 1.59,1.86 0.69,0.45 1.47,0.68 2.36,0.68zm13.98 3.1c-0.54,0 -0.98,-0.19 -1.33,-0.55 -0.35,-0.36 -0.53,-0.81 -0.53,-1.34l0 -12.78c0,-0.54 0.18,-0.98 0.53,-1.34 0.35,-0.37 0.79,-0.55 1.33,-0.55 0.54,0 0.98,0.18 1.33,0.55 0.35,0.36 0.53,0.8 0.53,1.34l0 2.91 -0.22 -2.07c0.23,-0.5 0.52,-0.94 0.88,-1.32 0.36,-0.38 0.77,-0.7 1.22,-0.96 0.46,-0.26 0.94,-0.45 1.46,-0.57 0.51,-0.12 1.03,-0.19 1.54,-0.19 0.62,0 1.14,0.18 1.57,0.53 0.42,0.35 0.63,0.76 0.63,1.24 0,0.68 -0.17,1.17 -0.53,1.47 -0.35,0.3 -0.73,0.45 -1.14,0.45 -0.39,0 -0.75,-0.08 -1.07,-0.22 -0.32,-0.15 -0.68,-0.22 -1.1,-0.22 -0.37,0 -0.74,0.09 -1.13,0.27 -0.38,0.17 -0.73,0.44 -1.05,0.82 -0.32,0.37 -0.57,0.83 -0.77,1.37 -0.2,0.55 -0.29,1.19 -0.29,1.94l0 7.33c0,0.53 -0.18,0.98 -0.53,1.34 -0.35,0.36 -0.79,0.55 -1.33,0.55zm20.82 -21.66c1.07,0 2.08,0.31 3.02,0.93 0.94,0.62 1.69,1.45 2.27,2.5 0.58,1.05 0.87,2.23 0.87,3.53 0,1.28 -0.29,2.44 -0.87,3.5 -0.58,1.05 -1.33,1.89 -2.27,2.52 -0.94,0.63 -1.95,0.94 -3.02,0.94l-5.69 0 0.31 -0.56 0 6.41c0,0.53 -0.17,0.98 -0.5,1.34 -0.33,0.36 -0.76,0.55 -1.3,0.55 -0.51,0 -0.94,-0.19 -1.27,-0.55 -0.33,-0.36 -0.49,-0.81 -0.49,-1.34l0 -17.88c0,-0.54 0.18,-0.99 0.54,-1.35 0.36,-0.36 0.81,-0.54 1.35,-0.54l7.05 0zm0 10.39c0.39,0 0.77,-0.16 1.14,-0.49 0.38,-0.33 0.69,-0.76 0.93,-1.28 0.25,-0.53 0.37,-1.08 0.37,-1.66 0,-0.6 -0.12,-1.16 -0.37,-1.67 -0.24,-0.52 -0.55,-0.93 -0.93,-1.25 -0.37,-0.32 -0.75,-0.48 -1.14,-0.48l-5.75 0 0.37 -0.56 0 7.89 -0.34 -0.5 5.72 0zm11.26 11.27c-0.53,0 -0.98,-0.19 -1.33,-0.55 -0.35,-0.36 -0.52,-0.81 -0.52,-1.34l0 -12.78c0,-0.54 0.17,-0.98 0.52,-1.34 0.35,-0.37 0.8,-0.55 1.33,-0.55 0.54,0 0.98,0.18 1.33,0.55 0.35,0.36 0.53,0.8 0.53,1.34l0 2.91 -0.22 -2.07c0.23,-0.5 0.52,-0.94 0.88,-1.32 0.36,-0.38 0.77,-0.7 1.22,-0.96 0.46,-0.26 0.94,-0.45 1.46,-0.57 0.51,-0.12 1.03,-0.19 1.55,-0.19 0.61,0 1.14,0.18 1.56,0.53 0.42,0.35 0.63,0.76 0.63,1.24 0,0.68 -0.17,1.17 -0.52,1.47 -0.35,0.3 -0.74,0.45 -1.15,0.45 -0.39,0 -0.75,-0.08 -1.07,-0.22 -0.32,-0.15 -0.68,-0.22 -1.09,-0.22 -0.38,0 -0.75,0.09 -1.13,0.27 -0.38,0.17 -0.74,0.44 -1.06,0.82 -0.31,0.37 -0.57,0.83 -0.77,1.37 -0.19,0.55 -0.29,1.19 -0.29,1.94l0 7.33c0,0.53 -0.18,0.98 -0.53,1.34 -0.35,0.36 -0.79,0.55 -1.33,0.55zm26.79 -8.27c0,1.7 -0.37,3.19 -1.13,4.48 -0.75,1.28 -1.76,2.29 -3.03,3.01 -1.27,0.72 -2.68,1.08 -4.25,1.08 -1.57,0 -2.99,-0.36 -4.26,-1.08 -1.26,-0.72 -2.27,-1.73 -3.03,-3.01 -0.75,-1.29 -1.13,-2.78 -1.13,-4.48 0,-1.69 0.38,-3.18 1.13,-4.47 0.76,-1.28 1.77,-2.3 3.03,-3.03 1.27,-0.73 2.69,-1.1 4.26,-1.1 1.57,0 2.98,0.37 4.25,1.1 1.27,0.73 2.28,1.75 3.03,3.03 0.76,1.29 1.13,2.78 1.13,4.47zm-3.71 0c0,-1.05 -0.21,-1.96 -0.63,-2.73 -0.43,-0.78 -0.99,-1.38 -1.71,-1.81 -0.71,-0.44 -1.5,-0.65 -2.36,-0.65 -0.87,0 -1.66,0.21 -2.37,0.65 -0.71,0.43 -1.28,1.03 -1.7,1.81 -0.42,0.77 -0.63,1.68 -0.63,2.73 0,1.04 0.21,1.94 0.63,2.71 0.42,0.78 0.99,1.38 1.7,1.81 0.71,0.43 1.5,0.65 2.37,0.65 0.86,0 1.65,-0.22 2.36,-0.65 0.72,-0.43 1.28,-1.03 1.71,-1.81 0.42,-0.77 0.63,-1.67 0.63,-2.71z"/>
  </g>
</svg>
